<svg xmlns="http://www.w3.org/2000/svg" viewBox="0 0 300 300"><defs><style>.cls-1,.cls-3{fill:none;stroke:#fff;stroke-miterlimit:10;}.cls-1{stroke-width:2px;}.cls-2,.cls-4{fill:#fff;}.cls-2{opacity:0.6;}</style></defs><g id="Layer_2" data-name="Layer 2"><circle class="cls-1" cx="150" cy="149.66" r="98.88"/><ellipse class="cls-1" cx="150" cy="149.66" rx="59.33" ry="98.88"/><ellipse class="cls-1" cx="150" cy="149.66" rx="79.11" ry="98.88"/><ellipse class="cls-1" cx="150" cy="149.66" rx="39.55" ry="98.88"/><ellipse class="cls-1" cx="150" cy="149.66" rx="19.78" ry="98.88"/><line class="cls-1" x1="150" y1="50.78" x2="150" y2="248.54"/><circle class="cls-1" cx="150" cy="149.66" r="98.88"/><ellipse class="cls-1" cx="150" cy="149.66" rx="98.88" ry="59.33"/><ellipse class="cls-1" cx="150" cy="149.66" rx="98.88" ry="79.11"/><ellipse class="cls-1" cx="150" cy="149.66" rx="98.88" ry="39.55"/><ellipse class="cls-1" cx="150" cy="149.66" rx="98.88" ry="19.78"/><line class="cls-1" x1="248.88" y1="149.66" x2="51.12" y2="149.66"/><circle class="cls-2" cx="150" cy="150" r="98.88"/><circle class="cls-3" cx="150" cy="150" r="121.12"/><circle class="cls-4" cx="150" cy="28.88" r="4.19"/><circle class="cls-4" cx="150" cy="271.12" r="4.19"/><circle class="cls-4" cx="89.44" cy="45.11" r="4.19"/><circle class="cls-4" cx="210.56" cy="254.89" r="4.19"/><circle class="cls-4" cx="45.11" cy="89.44" r="4.19"/><circle class="cls-4" cx="254.89" cy="210.56" r="4.19"/><circle class="cls-4" cx="28.88" cy="150" r="4.19"/><circle class="cls-4" cx="271.12" cy="150" r="4.19"/><circle class="cls-4" cx="45.11" cy="210.56" r="4.19"/><circle class="cls-4" cx="254.89" cy="89.44" r="4.19"/><circle class="cls-4" cx="89.44" cy="254.89" r="4.19"/><circle class="cls-4" cx="210.56" cy="45.11" r="4.19"/></g></svg>