<svg xmlns="http://www.w3.org/2000/svg" viewBox="0 0 300 300"><defs><style>.cls-1,.cls-2{fill:none;stroke:#fff;stroke-miterlimit:10;}.cls-1{stroke-width:2px;}.cls-3{fill:#fff;}</style></defs><g id="Layer_2" data-name="Layer 2"><line class="cls-1" x1="29" y1="29" x2="29" y2="271"/><line class="cls-1" x1="271" y1="271" x2="29" y2="271"/><polyline class="cls-2" points="57.01 246.96 100.44 231.99 160.49 196.36 214.15 152 250.56 105.8 271 62.59"/><path class="cls-3" d="M57,250c3.86,0,3.86-6,0-6s-3.87,6,0,6Z"/><path class="cls-3" d="M101.05,234.48c3.86,0,3.87-6,0-6s-3.86,6,0,6Z"/><path class="cls-3" d="M160.81,198.87c3.86,0,3.87-6,0-6s-3.87,6,0,6Z"/><path class="cls-3" d="M214.64,154.66c3.86,0,3.87-6,0-6s-3.87,6,0,6Z"/><path class="cls-3" d="M250.52,108.33c3.86,0,3.86-6,0-6s-3.87,6,0,6Z"/><path class="cls-3" d="M271,65.59c3.86,0,3.86-6,0-6s-3.87,6,0,6Z"/><polyline class="cls-2" points="53.81 238.32 95.67 224.67 153.54 192.22 205.25 151.81 240.34 109.73 260.04 70.37"/><path class="cls-3" d="M53.81,241.32c3.86,0,3.87-6,0-6s-3.86,6,0,6Z"/><path class="cls-3" d="M96.26,227.22c3.86,0,3.87-6,0-6s-3.87,6,0,6Z"/><path class="cls-3" d="M153.85,194.78c3.86,0,3.86-6,0-6s-3.87,6,0,6Z"/><path class="cls-3" d="M205.73,154.5c3.86,0,3.86-6,0-6s-3.87,6,0,6Z"/><path class="cls-3" d="M240.3,112.3c3.86,0,3.87-6,0-6s-3.87,6,0,6Z"/><path class="cls-3" d="M260,73.37c3.87,0,3.87-6,0-6s-3.86,6,0,6Z"/><polyline class="cls-2" points="46.13 226.8 86.33 218.34 141.91 198.22 191.57 173.18 225.26 147.09 244.18 122.7"/><path class="cls-3" d="M46.13,229.8c3.86,0,3.87-6,0-6s-3.87,6,0,6Z"/><path class="cls-3" d="M86.9,221.06c3.86,0,3.86-6,0-6s-3.87,6,0,6Z"/><path class="cls-3" d="M142.2,201c3.86,0,3.87-6,0-6s-3.87,6,0,6Z"/><path class="cls-3" d="M192,176c3.86,0,3.86-6,0-6s-3.87,6,0,6Z"/><path class="cls-3" d="M225.23,149.83c3.86,0,3.87-6,0-6s-3.87,6,0,6Z"/><path class="cls-3" d="M244.18,125.7c3.86,0,3.87-6,0-6s-3.86,6,0,6Z"/><polyline class="cls-2" points="59 209.9 96.85 201.44 149.18 181.33 195.94 156.28 227.67 130.2 245.48 105.8"/><path class="cls-3" d="M59,212.9c3.86,0,3.87-6,0-6s-3.87,6,0,6Z"/><path class="cls-3" d="M97.38,204.16c3.86,0,3.87-6,0-6s-3.86,6,0,6Z"/><path class="cls-3" d="M149.46,184.05c3.86,0,3.87-6,0-6s-3.87,6,0,6Z"/><path class="cls-3" d="M196.37,159.09c3.86,0,3.87-6,0-6s-3.87,6,0,6Z"/><path class="cls-3" d="M227.64,132.93c3.86,0,3.86-6,0-6s-3.87,6,0,6Z"/><path class="cls-3" d="M245.48,108.8c3.86,0,3.87-6,0-6s-3.86,6,0,6Z"/><polyline class="cls-2" points="46.13 215.53 88.08 202.88 146.06 172.79 197.88 135.33 233.05 96.32 252.79 59.84"/><path class="cls-3" d="M46.13,218.53c3.86,0,3.87-6,0-6s-3.87,6,0,6Z"/><path class="cls-3" d="M88.67,205.45c3.86,0,3.86-6,0-6s-3.87,6,0,6Z"/><path class="cls-3" d="M146.37,175.38c3.87,0,3.87-6,0-6s-3.86,6,0,6Z"/><path class="cls-3" d="M198.36,138.05c3.86,0,3.87-6,0-6s-3.86,6,0,6Z"/><path class="cls-3" d="M233,98.93c3.86,0,3.87-6,0-6s-3.87,6,0,6Z"/><path class="cls-3" d="M252.79,62.84c3.86,0,3.86-6,0-6s-3.87,6,0,6Z"/><polyline class="cls-2" points="64.25 202.46 99.81 190.87 148.96 163.31 192.88 128.99 222.69 93.26 239.42 59.84"/><path class="cls-3" d="M64.25,205.45c3.86,0,3.87-6,0-6s-3.87,6,0,6Z"/><path class="cls-3" d="M100.31,193.48c3.86,0,3.86-6,0-6s-3.87,6,0,6Z"/><path class="cls-3" d="M149.22,165.93c3.86,0,3.87-6,0-6s-3.87,6,0,6Z"/><path class="cls-3" d="M193.29,131.73c3.86,0,3.86-6,0-6s-3.87,6,0,6Z"/><path class="cls-3" d="M222.65,95.9c3.86,0,3.87-6,0-6s-3.86,6,0,6Z"/><path class="cls-3" d="M239.42,62.84c3.86,0,3.86-6,0-6s-3.87,6,0,6Z"/><polyline class="cls-2" points="41.77 195.87 82.07 185.68 137.77 161.43 187.55 131.23 221.33 99.78 240.3 70.37"/><path class="cls-3" d="M41.77,198.87c3.86,0,3.86-6,0-6s-3.87,6,0,6Z"/><path class="cls-3" d="M82.63,188.33c3.86,0,3.87-6,0-6s-3.86,6,0,6Z"/><path class="cls-3" d="M138.07,164.09c3.86,0,3.87-6,0-6s-3.87,6,0,6Z"/><path class="cls-3" d="M188,134c3.87,0,3.87-6,0-6s-3.86,6,0,6Z"/><path class="cls-3" d="M221.3,102.46c3.86,0,3.87-6,0-6s-3.87,6,0,6Z"/><path class="cls-3" d="M240.3,73.37c3.86,0,3.87-6,0-6s-3.87,6,0,6Z"/><polyline class="cls-2" points="42.94 214.41 83.23 204.21 138.94 179.96 188.72 149.76 222.5 118.32 241.47 88.91"/><path class="cls-3" d="M42.94,217.41c3.86,0,3.86-6,0-6s-3.87,6,0,6Z"/><path class="cls-3" d="M83.8,206.87c3.86,0,3.87-6,0-6s-3.87,6,0,6Z"/><path class="cls-3" d="M139.24,182.63c3.86,0,3.87-6,0-6s-3.87,6,0,6Z"/><path class="cls-3" d="M189.18,152.53c3.86,0,3.87-6,0-6s-3.86,6,0,6Z"/><path class="cls-3" d="M222.47,121c3.86,0,3.86-6,0-6s-3.87,6,0,6Z"/><path class="cls-3" d="M241.47,91.91c3.86,0,3.86-6,0-6s-3.87,6,0,6Z"/><polyline class="cls-2" points="47.11 180.75 83.75 171.38 134.41 149.11 179.68 121.37 210.39 92.49 227.64 65.47"/><path class="cls-3" d="M47.11,183.75c3.86,0,3.87-6,0-6s-3.87,6,0,6Z"/><path class="cls-3" d="M84.27,174.07c3.86,0,3.86-6,0-6s-3.87,6,0,6Z"/><path class="cls-3" d="M134.68,151.8c3.86,0,3.87-6,0-6s-3.87,6,0,6Z"/><path class="cls-3" d="M180.09,124.16c3.86,0,3.87-6,0-6s-3.86,6,0,6Z"/><path class="cls-3" d="M210.36,95.19c3.86,0,3.87-6,0-6s-3.87,6,0,6Z"/><path class="cls-3" d="M227.64,68.47c3.86,0,3.86-6,0-6s-3.87,6,0,6Z"/></g></svg>