<svg xmlns="http://www.w3.org/2000/svg" viewBox="0 0 300 300"><defs><style>.cls-1,.cls-10,.cls-11,.cls-2,.cls-3,.cls-4,.cls-5,.cls-6,.cls-7,.cls-8,.cls-9{fill:#fff;}.cls-1{opacity:0.2;}.cls-2{opacity:0.3;}.cls-3{opacity:0.4;}.cls-4{opacity:0.5;}.cls-5{opacity:0.6;}.cls-6{opacity:0.7;}.cls-7{opacity:0.8;}.cls-8{opacity:0.9;}.cls-9{opacity:0.95;}.cls-10{opacity:0.98;}</style></defs><g id="Layer_2" data-name="Layer 2"><rect class="cls-1" x="29" y="29" width="40.33" height="40.33"/><rect class="cls-2" x="69.34" y="29" width="40.33" height="40.33"/><rect class="cls-3" x="109.67" y="29" width="40.33" height="40.33"/><rect class="cls-4" x="150" y="29" width="40.33" height="40.33"/><rect class="cls-5" x="190.33" y="29" width="40.33" height="40.33"/><rect class="cls-6" x="230.66" y="29" width="40.33" height="40.33"/><rect class="cls-2" x="29" y="69.34" width="40.33" height="40.33"/><rect class="cls-3" x="69.34" y="69.34" width="40.33" height="40.33"/><rect class="cls-4" x="109.67" y="69.34" width="40.33" height="40.33"/><rect class="cls-5" x="150" y="69.34" width="40.33" height="40.33"/><rect class="cls-6" x="190.33" y="69.34" width="40.33" height="40.33"/><rect class="cls-7" x="230.66" y="69.34" width="40.33" height="40.33"/><rect class="cls-3" x="29" y="109.67" width="40.33" height="40.33"/><rect class="cls-4" x="69.34" y="109.67" width="40.33" height="40.33"/><rect class="cls-5" x="109.67" y="109.67" width="40.33" height="40.33"/><rect class="cls-6" x="150" y="109.67" width="40.33" height="40.33"/><rect class="cls-7" x="190.33" y="109.67" width="40.33" height="40.33"/><rect class="cls-8" x="230.66" y="109.67" width="40.33" height="40.33"/><rect class="cls-4" x="29" y="150" width="40.33" height="40.33"/><rect class="cls-5" x="69.34" y="150" width="40.33" height="40.33"/><rect class="cls-6" x="109.67" y="150" width="40.33" height="40.33"/><rect class="cls-7" x="150" y="150" width="40.33" height="40.33"/><rect class="cls-8" x="190.33" y="150" width="40.33" height="40.33"/><rect class="cls-9" x="230.66" y="150" width="40.33" height="40.33"/><rect class="cls-5" x="29" y="190.33" width="40.33" height="40.33"/><rect class="cls-6" x="69.34" y="190.33" width="40.33" height="40.33"/><rect class="cls-7" x="109.67" y="190.33" width="40.33" height="40.33"/><rect class="cls-8" x="150" y="190.33" width="40.33" height="40.33"/><rect class="cls-9" x="190.33" y="190.33" width="40.33" height="40.33"/><rect class="cls-10" x="230.66" y="190.33" width="40.33" height="40.33"/><rect class="cls-6" x="29" y="230.66" width="40.33" height="40.33"/><rect class="cls-7" x="69.34" y="230.66" width="40.33" height="40.33"/><rect class="cls-8" x="109.67" y="230.66" width="40.33" height="40.33"/><rect class="cls-9" x="150" y="230.66" width="40.33" height="40.33"/><rect class="cls-10" x="190.33" y="230.66" width="40.33" height="40.33"/><rect class="cls-11" x="230.66" y="230.66" width="40.33" height="40.33"/></g></svg>